<svg xmlns="http://www.w3.org/2000/svg" version="1.1" xmlns:xlink="http://www.w3.org/1999/xlink" xmlns:svgjs="http://svgjs.dev/svgjs" width="2000" height="2024" viewBox="0 0 2000 2024"><g transform="matrix(1,0,0,1,1.767868852458946,0.8194331983804659)"><svg viewBox="0 0 244 247" data-background-color="#ffffff" preserveAspectRatio="xMidYMid meet" height="2024" width="2000" xmlns="http://www.w3.org/2000/svg" xmlns:xlink="http://www.w3.org/1999/xlink"><g id="tight-bounds" transform="matrix(1,0,0,1,-0.21567999999999188,-0.09999999999999432)"><svg viewBox="0 0 244.43135999999998 247.2" height="247.2" width="244.43135999999998"><g><svg></svg></g><g><svg viewBox="0 0 244.43135999999998 247.2" height="247.2" width="244.43135999999998"><g transform="matrix(1,0,0,1,0,58.561246315789475)"><svg viewBox="0 0 244.43135999999998 130.07750736842104" height="130.07750736842104" width="244.43135999999998"><g><svg viewBox="0 0 244.43135999999998 130.07750736842104" height="130.07750736842104" width="244.43135999999998"><g><svg viewBox="0 0 244.43135999999998 130.07750736842104" height="130.07750736842104" width="244.43135999999998"><g><svg viewBox="0 0 244.43135999999998 130.07750736842104" height="130.07750736842104" width="244.43135999999998"><g id="textblocktransform"><svg viewBox="0 0 244.43135999999998 130.07750736842104" height="130.07750736842104" width="244.43135999999998" id="textblock"><g><svg viewBox="0 0 244.43135999999998 130.07750736842104" height="130.07750736842104" width="244.43135999999998"><g transform="matrix(1,0,0,1,0,0)"><svg width="244.43135999999998" viewBox="2 -36 68.4 36.4" height="130.07750736842104" data-palette-color="#1ebbd7"><path d="M34.3-13.95Q34.3-6.75 30.18-3.18 26.05 0.4 18.23 0.4 10.4 0.4 6.2-3.18 2-6.75 2-13.95L2-13.95 2-32.3Q2-33.55 4.83-34.55 7.65-35.55 11.4-35.55L11.4-35.55Q14.4-35.55 15.3-34.4L15.3-34.4Q15.95-33.5 15.95-32.85L15.95-32.85 15.95-17.95Q15.95-12.3 16.38-10.48 16.8-8.65 18.2-8.65 19.6-8.65 19.98-10.43 20.35-12.2 20.35-18L20.35-18 20.35-32.3Q20.35-33.55 23.18-34.55 26-35.55 29.7-35.55L29.7-35.55Q32.85-35.55 33.7-34.4L33.7-34.4Q34.3-33.5 34.3-32.85L34.3-32.85 34.3-13.95ZM52.2-9.05L52.2-1.45Q52.2-0.8 49.15-0.4 46.1 0 43.05 0 40 0 39.15-0.35 38.3-0.7 38.3-1.45L38.3-1.45 38.3-33.6Q38.3-36 52.7-36L52.7-36Q61.4-36 64.2-34.8L64.2-34.8Q67.6-33.4 68.8-31L68.8-31Q70.4-27.9 70.4-23.05L70.4-23.05Q70.4-16.4 68.1-13.4L68.1-13.4Q66.45-11.2 64.8-10.55 63.15-9.9 62.07-9.63 61-9.35 59.4-9.2L59.4-9.2Q57.2-9 53.4-9L53.4-9 52.2-9.05ZM52.25-27.6L52.25-17.35 53.45-17.35Q54.4-17.35 54.95-17.63 55.5-17.9 55.92-19.13 56.35-20.35 56.35-22.58 56.35-24.8 55.87-25.98 55.4-27.15 54.92-27.38 54.45-27.6 53.8-27.6L53.8-27.6 52.25-27.6Z" opacity="1" transform="matrix(1,0,0,1,0,0)" fill="#1ebbd7" class="wordmark-text-0" data-fill-palette-color="primary" id="text-0"></path></svg></g></svg></g></svg></g></svg></g><g></g></svg></g></svg></g></svg></g><path d="M0 52.561L0 1 244.431 1 244.431 52.561 232.701 52.561 232.701 12.731 11.731 12.731 11.731 52.561 0 52.561M0 194.639L0 246.2 244.431 246.2 244.431 194.639 232.701 194.639 232.701 234.469 11.731 234.469 11.731 194.639 0 194.639" fill="#1ebbd7" stroke="transparent" data-fill-palette-color="tertiary"></path></svg></g><defs></defs></svg><rect width="244.43135999999998" height="247.2" fill="none" stroke="none" visibility="hidden"></rect></g></svg></g></svg>