<svg xmlns="http://www.w3.org/2000/svg" version="1.1" xmlns:xlink="http://www.w3.org/1999/xlink" xmlns:svgjs="http://svgjs.dev/svgjs" width="2000" height="1500" viewBox="0 0 2000 1500"><rect width="2000" height="1500" fill="#ffffff"></rect><g transform="matrix(0.75,0,0,0.75,249.090909090909,282.7536437246964)"><svg viewBox="0 0 396 247" data-background-color="#ffffff" preserveAspectRatio="xMidYMid meet" height="1247" width="2000" xmlns="http://www.w3.org/2000/svg" xmlns:xlink="http://www.w3.org/1999/xlink"><g id="tight-bounds" transform="matrix(1,0,0,1,0.2400000000000091,-0.09999999999999432)"><svg viewBox="0 0 395.52 247.2" height="247.2" width="395.52"><g><svg></svg></g><g><svg viewBox="0 0 395.52 247.2" height="247.2" width="395.52"><g transform="matrix(1,0,0,1,75.54432,80.99233835017006)"><svg viewBox="0 0 244.43135999999998 85.21532329965989" height="85.21532329965989" width="244.43135999999998"><g><svg viewBox="0 0 244.43135999999998 85.21532329965989" height="85.21532329965989" width="244.43135999999998"><g><svg viewBox="0 0 244.43135999999998 85.21532329965989" height="85.21532329965989" width="244.43135999999998"><g><svg viewBox="0 0 244.43135999999998 85.21532329965989" height="85.21532329965989" width="244.43135999999998"><g id="textblocktransform"><svg viewBox="0 0 244.43135999999998 85.21532329965989" height="85.21532329965989" width="244.43135999999998" id="textblock"><g><svg viewBox="0 0 244.43135999999998 45.96107349410698" height="45.96107349410698" width="244.43135999999998"><g transform="matrix(1,0,0,1,0,0)"><svg width="244.43135999999998" viewBox="1.3 -37.95 275.72999999999996 51.85" height="45.96107349410698" data-palette-color="#1ebbd7"><path d="M25.2-7.7L25.2-7.7Q25.2-6.4 26.53-6.4 27.85-6.4 28.75-6.9L28.75-6.9 28.5-1.25Q26.1 0.7 23.1 0.7L23.1 0.7Q17.45 0.7 16.95-3.65L16.95-3.65Q13.95 0.7 8.88 0.7 3.8 0.7 2.3-1.6L2.3-1.6Q1.3-3.05 1.3-4.9 1.3-6.75 1.6-8.3L1.6-8.3 4.4-24.05 12.9-24.05 10.55-10.75Q10.4-9.85 10.4-8.95L10.4-8.95Q10.4-6.55 13.1-6.55L13.1-6.55Q15.35-6.55 16.7-8.1L16.7-8.1 19.55-24.05 28.05-24.05 25.25-8.3Q25.2-8 25.2-7.7ZM73.25-6.4L73.25-6.4Q74.4-6.4 75.3-6.9L75.3-6.9 75.05-1.25Q72.7 0.7 69.7 0.7L69.7 0.7Q62.9 0.7 62.9-5L62.9-5Q62.9-6 63.1-7.15L63.1-7.15 64.15-13.3Q64.3-14.2 64.3-15.1L64.3-15.1Q64.3-17.5 61.67-17.5 59.05-17.5 57.55-15.45L57.55-15.45 54.85 0 46.35 0 48.7-13.3Q48.85-14.2 48.85-15.1L48.85-15.1Q48.85-17.5 46.15-17.5L46.15-17.5Q44-17.5 42.45-15.85L42.45-15.85 39.65 0 31.15 0 35.4-24.05 43.3-24.05 42.75-21.05Q45.75-24.75 50.35-24.75L50.35-24.75Q56.85-24.75 57.75-20.45L57.75-20.45Q60.75-24.75 65.77-24.75 70.8-24.75 72.3-22.5L72.3-22.5Q73.3-20.95 73.3-19.1 73.3-17.25 73.05-15.75L73.05-15.75 71.8-8.3Q71.75-8 71.75-7.75L71.75-7.75Q71.75-6.4 73.25-6.4ZM102.35-7.7L102.35-7.7Q102.35-6.4 103.67-6.4 105-6.4 105.9-6.9L105.9-6.9 105.65-1.25Q103.25 0.7 100.25 0.7L100.25 0.7Q94.6 0.7 94.1-3.65L94.1-3.65Q91.1 0.7 86.02 0.7 80.95 0.7 79.45-1.6L79.45-1.6Q78.45-3.05 78.45-4.9 78.45-6.75 78.75-8.3L78.75-8.3 81.55-24.05 90.05-24.05 87.7-10.75Q87.55-9.85 87.55-8.95L87.55-8.95Q87.55-6.55 90.25-6.55L90.25-6.55Q92.5-6.55 93.85-8.1L93.85-8.1 96.7-24.05 105.2-24.05 102.4-8.3Q102.35-8 102.35-7.7ZM119.69 0.7L119.69 0.7Q113.89 0.7 111.34-1.9L111.34-1.9Q109.44-3.8 109.44-7L109.44-7Q109.44-8.05 109.64-9.25L109.64-9.25 113.04-28.6 122.19-32.4 120.74-24.05 134.54-24.05 133.29-17 119.49-17 118.49-11.35Q118.29-10.4 118.29-9.65L118.29-9.65Q118.29-6.5 121.29-6.5L121.29-6.5Q122.89-6.5 123.97-7.85 125.04-9.2 125.44-11.45L125.44-11.45 133.74-11.45Q131.64 0.7 119.69 0.7ZM165.79-24.7L165.79-24.7Q170.89-24.7 172.84-22L172.84-22Q174.24-20.15 174.24-17.3L174.24-17.3Q174.24-16.15 173.99-14.85L173.99-14.85 172.99-9Q172.14-4.25 169.34-1.78 166.54 0.7 162.34 0.7 158.14 0.7 156.49-1.55L156.49-1.55 153.79 13.9 145.29 13.9 151.99-24.05 159.69-24.05 159.44-22.7Q161.79-24.7 165.79-24.7ZM160.59-6.5L160.59-6.5Q161.99-6.5 163.19-7.4 164.39-8.3 164.69-10.1L164.69-10.1 165.34-13.85Q165.44-14.35 165.44-15.1 165.44-15.85 164.79-16.7 164.14-17.55 162.54-17.55L162.54-17.55Q159.94-17.55 159.14-16.3L159.14-16.3 157.64-7.9Q158.34-6.5 160.59-6.5ZM192.19-24.75L192.19-24.75Q197.59-24.75 200.34-22.4L200.34-22.4Q202.49-20.55 202.49-17.25L202.49-17.25Q202.49-16.15 202.24-14.85L202.24-14.85 201.19-9Q200.24-3.7 196.76-1.5 193.29 0.7 187.49 0.7 181.69 0.7 178.99-1.5L178.99-1.5Q176.99-3.15 176.99-6.45L176.99-6.45Q176.99-7.6 177.24-9L177.24-9 178.29-14.85Q180.04-24.75 192.19-24.75ZM192.89-10.1L193.54-13.85Q193.64-14.35 193.64-15.13 193.64-15.9 192.99-16.85 192.34-17.8 190.71-17.8 189.09-17.8 187.99-16.73 186.89-15.65 186.59-13.85L186.59-13.85 185.94-10.1Q185.84-9.6 185.84-8.83 185.84-8.05 186.49-7.15 187.14-6.25 188.76-6.25 190.39-6.25 191.49-7.38 192.59-8.5 192.89-10.1L192.89-10.1ZM214.73-7.7L214.73-7.7Q214.73-6.4 216.06-6.4 217.38-6.4 218.28-6.9L218.28-6.9 218.03-1.25Q215.63 0.7 212.63 0.7L212.63 0.7Q208.08 0.7 206.73-1.4L206.73-1.4Q205.88-2.75 205.88-4.35 205.88-5.95 206.08-7.15L206.08-7.15 211.53-37.95 220.03-37.95 214.78-8.3Q214.73-8 214.73-7.7ZM244.83-7.7L244.83-7.7Q244.83-6.4 246.16-6.4 247.48-6.4 248.38-6.9L248.38-6.9 248.13-1.25Q245.73 0.7 242.73 0.7L242.73 0.7Q237.23 0.7 236.63-3.3L236.63-3.3Q234.13 0.7 229.28 0.7L229.28 0.7Q221.08 0.7 221.08-6.35L221.08-6.35Q221.08-7.55 221.33-9L221.33-9 222.38-14.85Q223.18-19.35 226.06-22.03 228.93-24.7 233.56-24.7 238.18-24.7 239.83-22.55L239.83-22.55 240.08-24.05 247.68-24.05 244.88-8.3Q244.83-8 244.83-7.7ZM230.68-13.85L230.03-10.1Q229.93-9.65 229.93-8.85 229.93-8.05 230.68-7.28 231.43-6.5 233.21-6.5 234.98-6.5 236.28-7.9L236.28-7.9 237.78-16.3Q237.23-17.55 235.18-17.55L235.18-17.55Q231.33-17.55 230.68-13.85L230.68-13.85ZM262.18 0.7L262.18 0.7Q256.38 0.7 253.83-1.9L253.83-1.9Q251.93-3.8 251.93-7L251.93-7Q251.93-8.05 252.13-9.25L252.13-9.25 255.53-28.6 264.68-32.4 263.23-24.05 277.03-24.05 275.78-17 261.98-17 260.98-11.35Q260.78-10.4 260.78-9.65L260.78-9.65Q260.78-6.5 263.78-6.5L263.78-6.5Q265.38-6.5 266.45-7.85 267.53-9.2 267.93-11.45L267.93-11.45 276.23-11.45Q274.13 0.7 262.18 0.7Z" opacity="1" transform="matrix(1,0,0,1,0,0)" fill="#1ebbd7" class="wordmark-text-0" data-fill-palette-color="primary" id="text-0"></path></svg></g></svg></g><g transform="matrix(1,0,0,1,0,56.81137988030177)"><svg viewBox="0 0 244.43135999999998 28.40394341935811" height="28.40394341935811" width="244.43135999999998"><g transform="matrix(1,0,0,1,0,0)"><svg width="244.43135999999998" viewBox="2.8 -36.3 424.25 49.3" height="28.40394341935811" data-palette-color="#1ebbd7"><path d="M19.75 1.15Q14.95 1.15 11.08-1.28 7.2-3.7 5-7.83 2.8-11.95 2.8-16.8L2.8-16.8Q2.8-21.8 5.1-26.13 7.4-30.45 11.35-33 15.3-35.55 20.05-35.55L20.05-35.55Q23-35.55 25.73-34.68 28.45-33.8 30.18-32.1 31.9-30.4 31.9-28L31.9-28Q31.9-26.05 30.53-24.68 29.15-23.3 27.25-23.3L27.25-23.3Q25.75-23.3 24.4-24.3L24.4-24.3 26.15-26.5Q26.8-26.1 27.3-26.1L27.3-26.1Q27.95-26.1 28.4-26.65 28.85-27.2 28.85-28.05L28.85-28.05Q28.85-29.5 27.48-30.55 26.1-31.6 24.05-32.15 22-32.7 20.1-32.7L20.1-32.7Q16.05-32.7 12.78-30.53 9.5-28.35 7.65-24.7 5.8-21.05 5.8-16.8L5.8-16.8Q5.8-12.7 7.58-9.22 9.35-5.75 12.53-3.73 15.7-1.7 19.8-1.7L19.8-1.7Q23.4-1.7 26.53-3.33 29.65-4.95 31.6-7.8L31.6-7.8 33.9-6.2Q31.45-2.6 27.7-0.73 23.95 1.15 19.75 1.15L19.75 1.15ZM49.56-25.5Q51.06-25.5 52.56-25.05L52.56-25.05 52.56-22.25Q51.11-22.6 49.66-22.6L49.66-22.6Q47.11-22.6 45.51-21.35L45.51-21.35Q43.91-20.1 42.66-17.8L42.66-17.8 42.66 0 39.66 0 39.66-17.5Q39.66-21.45 37.56-23.3L37.56-23.3 39.56-25.3Q40.46-24.75 41.26-23.65 42.06-22.55 42.41-21.2L42.41-21.2Q43.81-23.5 45.21-24.35L45.21-24.35Q46.96-25.5 49.56-25.5L49.56-25.5ZM66.67 0.5Q62.92 0.5 60.32-1.05 57.72-2.6 56.4-5.33 55.07-8.05 55.07-11.5L55.07-11.5Q55.07-14.9 56.35-18.1 57.62-21.3 60.2-23.35 62.77-25.4 66.47-25.4L66.47-25.4Q68.92-25.4 71.02-24.45 73.12-23.5 74.35-21.75 75.57-20 75.57-17.7L75.57-17.7Q75.57-14 72.42-11.98 69.27-9.95 63.72-10L63.72-10 58.22-10.05Q58.67-6.2 60.8-4.2 62.92-2.2 66.67-2.2L66.67-2.2Q68.92-2.2 70.85-2.83 72.77-3.45 74.57-4.75L74.57-4.75 76.07-2.75Q74.17-1.25 71.75-0.38 69.32 0.5 66.67 0.5L66.67 0.5ZM64.37-12.6Q72.57-12.6 72.57-17.75L72.57-17.75Q72.57-20.25 70.85-21.48 69.12-22.7 66.62-22.7L66.62-22.7Q63.82-22.7 61.9-21.1 59.97-19.5 59.02-17.15 58.07-14.8 58.07-12.6L58.07-12.6 64.37-12.6ZM91.54 0.5Q88.09 0.5 85.64-1.25 83.19-3 81.94-5.9 80.69-8.8 80.69-12.3L80.69-12.3Q80.69-16.15 82.19-19.13 83.69-22.1 86.49-23.75 89.29-25.4 93.04-25.4L93.04-25.4Q94.19-25.4 95.94-25.28 97.69-25.15 99.04-24.95L99.04-24.95 102.04-24.95 102.04-4.3Q102.04-3.3 102.51-2.78 102.99-2.25 103.69-2.25L103.69-2.25Q104.59-2.25 105.14-3.1L105.14-3.1 107.29-1.4Q106.54-0.35 105.61 0.08 104.69 0.5 103.49 0.5L103.49 0.5Q101.74 0.5 100.41-0.7 99.09-1.9 99.09-3.6L99.09-3.6Q97.89-1.6 95.94-0.55 93.99 0.5 91.54 0.5L91.54 0.5ZM91.59-2.2Q93.84-2.2 95.64-3.3 97.44-4.4 98.34-6.2L98.34-6.2Q99.04-7.65 99.04-9.4L99.04-9.4 99.04-22.5 95.74-22.6 92.84-22.7Q88.29-22.7 85.99-19.85 83.69-17 83.69-12.4L83.69-12.4Q83.69-8.15 85.71-5.18 87.74-2.2 91.59-2.2L91.59-2.2ZM117.8 0.5Q114.4 0.5 112.8-1.43 111.2-3.35 111.2-7.2L111.2-7.2 111.2-31.25 114.2-31.25 114.2-24.9 122.05-24.9 122.05-22.2 114.2-22.2 114.2-7.2Q114.2-2.2 117.8-2.2L117.8-2.2Q120.65-2.2 122.2-5.25L122.2-5.25 124.45-3.7Q123.3-1.6 121.7-0.55 120.1 0.5 117.8 0.5L117.8 0.5ZM132.31-4.2Q132.31-3.5 132.78-3.03 133.26-2.55 133.91-2.55L133.91-2.55Q134.91-2.55 135.36-3.4L135.36-3.4 137.56-1.75Q137.16-0.9 136.16-0.33 135.16 0.25 133.91 0.25L133.91 0.25Q131.91 0.25 130.61-1 129.31-2.25 129.31-4.25L129.31-4.25 129.31-25 132.31-25 132.31-4.2ZM130.66-28.25Q129.81-28.25 129.18-28.88 128.56-29.5 128.56-30.35L128.56-30.35Q128.56-31.25 129.18-31.88 129.81-32.5 130.66-32.5L130.66-32.5Q131.56-32.5 132.18-31.88 132.81-31.25 132.81-30.35L132.81-30.35Q132.81-29.5 132.18-28.88 131.56-28.25 130.66-28.25L130.66-28.25ZM141.07-20.75Q140.72-21.6 140.05-22.38 139.37-23.15 138.62-23.55L138.62-23.55 140.27-25.8Q142.82-24.25 144.22-20.4L144.22-20.4 150.52-3.85 158.32-24.95 161.32-24.95 152.02 0 148.92 0 141.07-20.75ZM176.23 0.5Q172.48 0.5 169.88-1.05 167.28-2.6 165.96-5.33 164.63-8.05 164.63-11.5L164.63-11.5Q164.63-14.9 165.91-18.1 167.18-21.3 169.76-23.35 172.33-25.4 176.03-25.4L176.03-25.4Q178.48-25.4 180.58-24.45 182.68-23.5 183.91-21.75 185.13-20 185.13-17.7L185.13-17.7Q185.13-14 181.98-11.98 178.83-9.95 173.28-10L173.28-10 167.78-10.05Q168.23-6.2 170.36-4.2 172.48-2.2 176.23-2.2L176.23-2.2Q178.48-2.2 180.41-2.83 182.33-3.45 184.13-4.75L184.13-4.75 185.63-2.75Q183.73-1.25 181.31-0.38 178.88 0.5 176.23 0.5L176.23 0.5ZM173.93-12.6Q182.13-12.6 182.13-17.75L182.13-17.75Q182.13-20.25 180.41-21.48 178.68-22.7 176.18-22.7L176.18-22.7Q173.38-22.7 171.46-21.1 169.53-19.5 168.58-17.15 167.63-14.8 167.63-12.6L167.63-12.6 173.93-12.6ZM218.76 0.4Q216.91 0.4 215.03 0.35 213.16 0.3 212.11 0.25L212.11 0.25 209.76 0 209.76-31.7Q208.76-31.7 208.28-31.58 207.81-31.45 207.46-31.1L207.46-31.1Q207.16-30.8 206.93-30.28 206.71-29.75 206.71-29.3L206.71-29.3 203.96-29.35Q204.06-31.7 205.46-33.1L205.46-33.1Q206.21-33.8 207.23-34.13 208.26-34.45 209.81-34.5L209.81-34.5 222.91-34.45Q227.51-34.35 231.11-32.08 234.71-29.8 236.73-25.85 238.76-21.9 238.76-16.95L238.76-16.95Q238.76-8.35 233.73-3.98 228.71 0.4 218.76 0.4L218.76 0.4ZM218.86-2.4Q227.11-2.4 231.43-6.1 235.76-9.8 235.76-16.9L235.76-16.9Q235.76-21.3 234.08-24.63 232.41-27.95 229.38-29.8 226.36-31.65 222.41-31.65L222.41-31.65 212.76-31.65 212.76-2.65 214.26-2.6Q217.16-2.4 218.86-2.4L218.86-2.4ZM255.52 0.5Q251.77 0.5 249.17-1.05 246.57-2.6 245.24-5.33 243.92-8.05 243.92-11.5L243.92-11.5Q243.92-14.9 245.19-18.1 246.47-21.3 249.04-23.35 251.62-25.4 255.32-25.4L255.32-25.4Q257.77-25.4 259.87-24.45 261.97-23.5 263.19-21.75 264.42-20 264.42-17.7L264.42-17.7Q264.42-14 261.27-11.98 258.12-9.95 252.57-10L252.57-10 247.07-10.05Q247.52-6.2 249.64-4.2 251.77-2.2 255.52-2.2L255.52-2.2Q257.77-2.2 259.69-2.83 261.62-3.45 263.42-4.75L263.42-4.75 264.92-2.75Q263.02-1.25 260.59-0.38 258.17 0.5 255.52 0.5L255.52 0.5ZM253.22-12.6Q261.42-12.6 261.42-17.75L261.42-17.75Q261.42-20.25 259.69-21.48 257.97-22.7 255.47-22.7L255.47-22.7Q252.67-22.7 250.74-21.1 248.82-19.5 247.87-17.15 246.92-14.8 246.92-12.6L246.92-12.6 253.22-12.6ZM270.08-20.75Q269.73-21.6 269.06-22.38 268.38-23.15 267.63-23.55L267.63-23.55 269.28-25.8Q271.83-24.25 273.23-20.4L273.23-20.4 279.53-3.85 287.33-24.95 290.33-24.95 281.03 0 277.93 0 270.08-20.75ZM305.24 0.5Q301.49 0.5 298.89-1.05 296.29-2.6 294.97-5.33 293.64-8.05 293.64-11.5L293.64-11.5Q293.64-14.9 294.92-18.1 296.19-21.3 298.77-23.35 301.34-25.4 305.04-25.4L305.04-25.4Q307.49-25.4 309.59-24.45 311.69-23.5 312.92-21.75 314.14-20 314.14-17.7L314.14-17.7Q314.14-14 310.99-11.98 307.84-9.95 302.29-10L302.29-10 296.79-10.05Q297.24-6.2 299.37-4.2 301.49-2.2 305.24-2.2L305.24-2.2Q307.49-2.2 309.42-2.83 311.34-3.45 313.14-4.75L313.14-4.75 314.64-2.75Q312.74-1.25 310.32-0.38 307.89 0.5 305.24 0.5L305.24 0.5ZM302.94-12.6Q311.14-12.6 311.14-17.75L311.14-17.75Q311.14-20.25 309.42-21.48 307.69-22.7 305.19-22.7L305.19-22.7Q302.39-22.7 300.47-21.1 298.54-19.5 297.59-17.15 296.64-14.8 296.64-12.6L296.64-12.6 302.94-12.6ZM323.36-4.2Q323.36-3.5 323.83-3.03 324.31-2.55 324.96-2.55L324.96-2.55Q325.96-2.55 326.41-3.4L326.41-3.4 328.61-1.75Q328.21-0.9 327.21-0.33 326.21 0.25 324.96 0.25L324.96 0.25Q322.96 0.25 321.66-1 320.36-2.25 320.36-4.25L320.36-4.25 320.36-36.3 323.36-36.3 323.36-4.2ZM342.92 0.5Q339.37 0.5 336.59-1.15 333.82-2.8 332.27-5.75 330.72-8.7 330.72-12.45L330.72-12.45Q330.72-16.2 332.29-19.18 333.87-22.15 336.64-23.83 339.42-25.5 342.97-25.5L342.97-25.5Q346.47-25.5 349.24-23.83 352.02-22.15 353.59-19.2 355.17-16.25 355.17-12.5L355.17-12.5Q355.17-8.75 353.59-5.8 352.02-2.85 349.24-1.18 346.47 0.5 342.92 0.5L342.92 0.5ZM342.97-2.2Q347.12-2.2 349.64-5.05 352.17-7.9 352.17-12.5L352.17-12.5Q352.17-15.55 351.02-17.88 349.87-20.2 347.77-21.5 345.67-22.8 342.97-22.8L342.97-22.8Q340.22-22.8 338.12-21.5 336.02-20.2 334.87-17.82 333.72-15.45 333.72-12.45L333.72-12.45Q333.72-9.45 334.87-7.13 336.02-4.8 338.12-3.5 340.22-2.2 342.97-2.2L342.97-2.2ZM371.68-25.4Q375.13-25.4 377.55-23.68 379.98-21.95 381.2-19.05 382.43-16.15 382.43-12.6L382.43-12.6Q382.43-8.75 380.98-5.8 379.53-2.85 376.78-1.18 374.03 0.5 370.23 0.5L370.23 0.5Q368.98 0.5 364.28-0.15L364.28-0.15 364.28 13 361.43 13 361.43-17.6Q361.43-21.55 359.33-23.4L359.33-23.4 361.33-25.4Q362.18-24.8 362.98-23.75 363.78-22.7 364.13-21.45L364.13-21.45Q366.28-25.4 371.68-25.4L371.68-25.4ZM369.98-2.2Q374.68-2.2 377.05-4.93 379.43-7.65 379.43-12.35L379.43-12.35Q379.43-16.8 377.4-19.75 375.38-22.7 371.78-22.7L371.78-22.7Q368.93-22.7 366.7-20.95 364.48-19.2 364.28-16.4L364.28-16.4 364.28-2.65Q368.88-2.2 369.98-2.2L369.98-2.2ZM398.54 0.5Q394.79 0.5 392.19-1.05 389.59-2.6 388.27-5.33 386.94-8.05 386.94-11.5L386.94-11.5Q386.94-14.9 388.22-18.1 389.49-21.3 392.07-23.35 394.64-25.4 398.34-25.4L398.34-25.4Q400.79-25.4 402.89-24.45 404.99-23.5 406.22-21.75 407.44-20 407.44-17.7L407.44-17.7Q407.44-14 404.29-11.98 401.14-9.95 395.59-10L395.59-10 390.09-10.05Q390.54-6.2 392.67-4.2 394.79-2.2 398.54-2.2L398.54-2.2Q400.79-2.2 402.72-2.83 404.64-3.45 406.44-4.75L406.44-4.75 407.94-2.75Q406.04-1.25 403.62-0.38 401.19 0.5 398.54 0.5L398.54 0.5ZM396.24-12.6Q404.44-12.6 404.44-17.75L404.44-17.75Q404.44-20.25 402.72-21.48 400.99-22.7 398.49-22.7L398.49-22.7Q395.69-22.7 393.77-21.1 391.84-19.5 390.89-17.15 389.94-14.8 389.94-12.6L389.94-12.6 396.24-12.6ZM424.05-25.5Q425.55-25.5 427.05-25.05L427.05-25.05 427.05-22.25Q425.6-22.6 424.15-22.6L424.15-22.6Q421.6-22.6 420-21.35L420-21.35Q418.4-20.1 417.15-17.8L417.15-17.8 417.15 0 414.15 0 414.15-17.5Q414.15-21.45 412.05-23.3L412.05-23.3 414.05-25.3Q414.95-24.75 415.75-23.65 416.55-22.55 416.9-21.2L416.9-21.2Q418.3-23.5 419.7-24.35L419.7-24.35Q421.45-25.5 424.05-25.5L424.05-25.5Z" opacity="1" transform="matrix(1,0,0,1,0,0)" fill="#1ebbd7" class="slogan-text-1" data-fill-palette-color="secondary" id="text-1"></path></svg></g></svg></g></svg></g></svg></g></svg></g></svg></g></svg></g><g><path d="M245.816 0c68.262 0 123.6 55.338 123.6 123.6 0 68.262-55.338 123.6-123.6 123.6-51.227 0-95.175-31.164-113.92-75.567h2.253c18.62 43.23 61.609 73.495 111.667 73.495 67.118 0 121.528-54.41 121.527-121.528 0-67.118-54.41-121.528-121.527-121.528-50.058 0-93.046 30.265-111.667 73.495l-2.253 0c18.745-44.403 62.693-75.567 113.92-75.567z" fill="#1ebbd7" stroke="transparent" data-fill-palette-color="tertiary"></path></g></svg></g><defs></defs></svg><rect width="395.52" height="247.2" fill="none" stroke="none" visibility="hidden"></rect></g></svg></g></svg>